<svg version="1.2" xmlns="http://www.w3.org/2000/svg" viewBox="0 0 512 512" width="512" height="512">
	<defs>
		<linearGradient id="g1" x2="1" gradientUnits="userSpaceOnUse" gradientTransform="matrix(101.861,142.945,-54.374,38.746,268.33,154.032)">
			<stop offset="0" stop-color="#e32053"/>
			<stop offset=".66" stop-color="#d11e50"/>
			<stop offset="1" stop-color="#be1c4c"/>
		</linearGradient>
		<linearGradient id="g2" x2="1" gradientUnits="userSpaceOnUse" gradientTransform="matrix(-23.088,159.403,-29.787,-4.314,665.09,238.32)">
			<stop offset="0" stop-color="#e32053"/>
			<stop offset=".66" stop-color="#d11e50"/>
			<stop offset="1" stop-color="#be1c4c"/>
		</linearGradient>
		<linearGradient id="g3" x2="1" gradientUnits="userSpaceOnUse" gradientTransform="matrix(96.297,243.99,-22.747,8.978,436.274,24.701)">
			<stop offset="0" stop-color="#e32053"/>
			<stop offset=".66" stop-color="#d11e50"/>
			<stop offset="1" stop-color="#be1c4c"/>
		</linearGradient>
	</defs>
	<style>
		.s0 { fill: #e32053 } 
		.s1 { fill: #0eab2f } 
		.s2 { fill: url(#g1) } 
		.s3 { fill: url(#g2) } 
		.s4 { fill: #e9e9e9 } 
		.s5 { fill: url(#g3) } 
		.s6 { fill: #fefefe } 
	</style>
	<g id="Logo">
		<path id="path33" class="s0" d="m116.71 202.33c-7.67-0.42-15.04-2.04-21.95-5.47-7.51-3.65-14-8.44-18.01-16.02 2.04 1.4 3.69 3.39 6.4 3.78-2.64-3.5-5.24-6.96-5.25-11.65-0.34-0.09-0.63-0.23-0.92-0.24-4.3-0.14-4.65-0.63-6.37-4.6-2.25-5.19-1.13-10.19 0.21-15.26 2.22-8.41 5.37-16.56 6.97-25.14 0.66-3.6 1.09-7.21 0.29-10.88q-1.26-5.85-6.85-7.89c-6.8-2.49-8.48-1.82-11.79 4.68-1.05 2.08-2.05 4.19-3.47 6.05-1.66 2.18-3.77 3.61-6.52 4.17-6.03 1.22-7.57-2.08-7.6-7.23-0.02-3.14 1.67-5.78 3.65-8.16 3.24-3.9 7.22-6.89 11.85-8.86 6.36-2.71 13.09-4.45 19.67-6.44 8.94-2.69 17.86-0.43 26.43 2.83 4 1.52 7.85 3.37 11.7 5.24 0.65 0.31 1.24 1 2.11 0.64 0 0-0.02-0.04-0.02-0.04-0.16 0.48 0.29 0.5 0.52 0.69 2.51 0.4 5.05 0.65 7.51 1.23 6.97 1.63 13.41 4.09 16.33 11.51 0.2 1.51 0.66 3.17-0.12 4.49-1.06 1.82-0.18 2.79 1.03 3.82q1.3 1.95 2.6 3.91 0.34 0.27 0.67 0.54l-0.04-0.03c3.27 6.22 6.57 12.42 8.84 19.14 0.4-6.68-0.94-13.03-3.29-19.21 1.06 0.12 1.21 1.08 1.6 1.78 0.99 1.76 1.82 3.6 2.67 5.43 0.99 2.15 1.89 4.29 2.42 6.59 0.05 0.46 0.05 0.93 0.17 1.37 1.81 6.75 2.45 13.62 2.04 20.58-0.24 4.08-0.77 8.15-2.02 12.17-1.13-0.16-2.05-0.28-2.96-0.42-5.77-0.87-11.51-0.85-17.11 0.91-11.61 3.65-17.43 12.37-20.35 23.57-0.22 0.84 0.01 1.92-1.04 2.42z"/>
		<path id="path21" class="s0" d="m12.15 163.48c0.17-9.16 4.18-16.13 10.35-22.06 1.46-1.4 2.97-2.76 4.58-3.98 3.15-2.42 5.73-1.34 6.62 2.49 0.82 3.51 0.18 6.3-2.68 8.77-3.08 2.66-2.21 7.42 1.63 8.9 3.14 1.21 4.37 3.43 4.75 6.52 1.3 10.58-7.31 17.81-17.6 14.75-4.48-1.33-6.31-4.8-7.05-9-0.4-2.22-0.43-4.49-0.6-6.39z"/>
		<path id="path20 1 " class="s0" d="m181.51 79.25c1.3-0.51 1.89 0.25 2.53 1.25 3.58 5.67 7.23 11.3 10.86 16.95 2.25 3.76 3.52 5.87 5.77 9.63 0.96 1.69 0.46 2.59-0.28 3.11-5.44 3.78-10.33 5.49-15.86 6.18-1.85 0.04-2-1.4-2.26-2.67q-1.32-6.56-2.6-13.13c-1.16-6.42-2.03-11.21-3.19-17.6 0 0-0.33-1.54 1.02-2.15 0.64-0.23 4.01-1.57 4.01-1.57z"/>
		<path id="path18" class="s0" d="m43.43 195.12c0.11-3.62 1.09-6.34 2.02-9.06 0.71-2.07 1.08-3.87-0.66-5.79-1.45-1.61-0.34-3.76 2.07-4.2 3.15-0.58 6.08 0.14 8.48 2.29 4.38 3.92 5.97 9.23 5.7 14.75-0.37 7.28-8.76 10.95-14.84 6.88-1.98-1.33-2.89-3.19-2.77-4.87z"/>
		<path id="path17" class="s0" d="m46.19 136.32c0.17-1.67-0.08-4.06 2.18-4.7 2.17-0.61 3.08 1.57 4.14 3.05q0.33 0.48 0.6 0.99c0.87 1.59 1.83 3.29 0.62 5.01-1.17 1.65-3.14 1.8-4.88 1.35-2.03-0.54-2.28-2.52-2.59-4.3-0.07-0.38-0.04-0.77-0.07-1.4z"/>
		<path id="path16" class="s1" d="m457.75 247.17q0.02 8.26 0.05 16.53c-3.73 0.08-7.46 0.22-11.2 0.23q-23.23 0.03-46.47 0.01c-1.16 0-2.32 0-3.7 0-2.22 32.05-13.99 60.08-35.14 84.43 0.68 0.56 1.27 0.97 1.76 1.46 13.65 13.74 27.55 27.24 40.88 41.29 0.47 0.48 1.17 0.83 1.12 1.67q-4.86 4.8-9.75 9.58c-0.66 0.64-1.38 1.23-2.07 1.84-15.03-13.98-29.14-28.89-43.89-43.28-24.22 21.16-52.3 32.77-84.24 35.03 0 1.33 0.01 2.26 0 3.2-0.07 19.53 0.21 39.06-0.25 58.59q-8.23 0-16.46 0.01c-0.1-3.88-0.29-7.76-0.3-11.64-0.03-15.64-0.01-31.27-0.01-46.91 0-1 0-2.01 0-3.21-32.03-2.25-60.02-14.03-84.56-35.29-0.55 0.73-0.98 1.49-1.57 2.09-11.15 11.18-22.26 22.4-33.53 33.46-2.73 2.68-5.96 4.86-8.4 7.87-1.82-0.68-2.85-2.31-4.15-3.58-2.6-2.54-5.07-5.2-7.59-7.81 13.99-15.01 28.88-29.14 43.22-43.83-0.46-0.62-0.79-1.14-1.2-1.6-8.79-10.07-15.89-21.22-21.45-33.37-6.65-14.54-10.54-29.78-12.03-45.66-0.34-3.65-0.26-3.64-3.97-3.66-19.21-0.08-38.43 0.22-57.64-0.25q-0.01-8.23-0.01-16.46c3.72-0.1 7.44-0.29 11.16-0.3 15.86-0.03 31.71-0.01 47.57-0.03 0.82 0 1.69 0.24 2.66-0.35 0.59-9.28 2.15-18.51 4.49-27.61 3.23 6.54 6.23 13.2 9.77 19.57 2.57 4.62 3.02 9.3 2.88 14.45-0.58 20.99 4.08 40.88 13.83 59.48 11.37 21.7 27.8 38.57 49.18 50.6 14.84 8.35 30.78 13.21 47.66 15.01 3.68 0.4 7.41 0.89 11.15 0.51 10.07 0.34 19.96-0.96 29.74-3.17 1.58-0.35 2.57-0.46 4.23-1.09 0.15-0.06 2.17-0.63 2.46-0.72 0.26-0.08 0.76-0.23 1.23-0.43 0.18-0.08 1.14-0.46 1.29-0.49 0.18-0.03 0.36-0.06 0.74-0.16 5.19-1.67 10.31-3.53 15-6.37 4.78-1.58 8.96-4.33 13.08-7.07 29.75-19.73 48.2-47.09 54.59-82.28 4.49-24.76 1.29-48.69-8.94-71.69-5.62-12.63-13.11-24.03-22.76-33.89-2.78-2.84-4.26-5.8-4.73-9.65-0.71-5.91-1.75-11.78-2.66-17.67-0.07-0.48-0.14-0.93 0.33-1.25 2.7 2.17 5.61 4.13 8.03 6.57 1.92 1.92 2.88 1.25 4.43-0.3 13.71-13.64 27.13-27.59 41.26-40.81 1.63 0.4 2.41 1.86 3.51 2.89 2.64 2.47 5.2 5.03 7.8 7.56-2.47 2.67-4.85 5.43-7.42 8-11.14 11.21-22.33 22.36-33.5 33.53q-0.88 0.91-1.74 1.83c0.61 1.15 1.23 2.14 2.03 3.03 0.59 0.66 1.19 1.32 1.74 2.01 8.05 10.23 14.83 21.16 19.86 33.2 3.35 8.03 6.17 16.16 7.87 24.7 0.7 3.48 1.51 6.91 1.89 10.46 0.24 2.29 0.98 4.57 0.88 6.88-0.12 2.72 0.02 4.14 3.61 4.13 19.45-0.08 38.9-0.29 58.35 0.18z"/>
		<path id="path15" class="s2" d="m289.52 374.98c-2.01 0.7-2.65 0.73-4.23 1.09-9.78 2.21-19.67 3.51-29.73 3.17q-0.73-0.48-1.46-0.95c-8-5.08-16.02-10.12-23.45-16.05-10.54-8.4-20.24-17.67-29.28-27.64-20.1-22.16-36.49-46.87-50.41-73.3-2.3-4.36-2.77-8.45-1.45-13.12 3.99-14.03 11.76-24.61 26.15-29.28 6.53-2.12 13.28-2.36 20.09-2.04 1.33 0.06 2.07 0.99 2.94 1.71 11.34 9.35 21.09 20.22 30.44 31.51 12.25 14.8 21.16 31.65 29.97 48.55 8.42 16.15 16.1 32.66 22.29 49.8 2.84 7.88 5.48 15.89 7.45 24.06 0.33 1.13 0.42 1.57 0.68 2.49z"/>
		<path id="path14" class="s3" d="m310.24 366.81c-4.69 2.84-9.81 4.7-15 6.37-0.24 0.07-0.55 0.13-0.74 0.16-0.22-1.03-0.51-2.16-0.71-2.94-2.58-10.15-5.89-20.08-9.97-29.7-2.17-5.1-2.43-9.85-1.51-15.26 2.74-16.03 4.94-32.16 7.33-48.25q4.1-27.44 8.15-54.88c1.84-12.45 3.63-24.91 5.45-37.36q0.43-2.99 0.92-5.98c0.37-2.18 2.76-3.74 4.87-3.12 0.96 0.28 1.99 0.63 2.75 1.25 3.05 2.46 6.32 2.13 9.72 1.02 3.82-1.24 3.83-1.21 5.81 2.11 1.84 3.08 4.37 3.95 8.02 2.66 1.38-0.49 2.7-1.17 4.18-1.82 1.36 2.41 0.3 4.77-0.06 7.02-2.2 13.93-4.53 27.83-6.83 41.74q-4.3 25.98-8.6 51.96c-0.86 5.22-1.69 10.44-2.59 15.64-1.19 6.86-2.76 13.67-3.59 20.57-1 8.33-2.48 16.58-3.89 24.83-1.31 7.64-2.63 15.26-3.67 22.94q-0.02 0.52-0.04 1.04z"/>
		<path id="path06" class="s1" d="m265.05 55.25c0.11 3.72 0.29 7.44 0.3 11.16 0.03 15.79 0.01 31.58 0.01 47.36 0 0.85 0 1.7 0 2.75 19.88 1.35 38.6 6.41 56.12 15.67-2.25 4.52-4.53 9.02-6.74 13.55-0.82 1.67-1.85 0.92-2.88 0.41-8.8-4.42-18.01-7.67-27.6-9.89-11.36-2.64-22.88-3.64-34.49-2.99-9.87 0.56-19.59 2.3-29.05 5.25-1.72 0.53-2.49 0.18-3.11-1.54-1.35-3.73-2.71-7.34-4.16-11.03-0.33-0.85-0.89-2.71-0.89-2.71 0.68-0.12 1.39-0.17 2.04-0.38q11.96-3.89 24.46-5.37c3.04-0.35 6.09-0.69 9.28-1.06 0-1.13-0.01-2.05 0-2.97 0.07-19.43-0.21-38.85 0.24-58.27q8.24 0.03 16.47 0.06z"/>
		<path id="path00a" class="s1" d="m164.49 150.89c1.32-1.02 2.84-2.11 4.2-3.22 5.32-4.3 10.88-8.25 16.78-11.72 2.37 4.71 3.79 9.81 5.91 14.63 0.35 0.8 0 1.29-0.68 1.72-10.26 6.54-19.31 14.49-27.51 23.54 1.29-6.21 2.03-12.41 1.72-18.7-0.1-2.08-0.28-4.17-0.42-6.25z"/>
		<g id="path13">
			<g id="&lt;Group&gt;">
				<path id="&lt;Path&gt;" class="s4" d="m457.75 247.12c-19.45-0.47-38.9-0.25-58.35-0.18 0 0-1.91 0.07-3.44-0.01-0.02-2.35-0.81-8.71-1.05-10.99-0.38-3.55-1.19-6.99-1.88-10.46-1.71-8.54-4.53-16.68-7.88-24.71-4.82-11.53-11.24-22.05-18.85-31.9-0.8-1.03-1.56-1.98-2.49-3.03-0.81-1.01-1.77-2.19-2.54-3.23 0.58-0.61 1.4-1.31 1.99-1.9 11.17-11.18 22.36-22.33 33.5-33.53 2.57-2.58 4.95-5.33 7.42-8.01 1.68-1.64 3.38-3.45 5.07-5.11 0.66 0.65 1.37 1.49 1.97 2.15 3.61 3.98 7.01 8.13 10.37 12.32 0.88 1.1 1.04 1.93 0.39 3.29-5.17 10.69-10.16 21.47-15.36 32.15-1.19 2.44-1.29 4.3 0.16 6.8 7.3 12.55 12.59 25.96 16.33 39.98 0.32 1.21 0.83 1.82 1.98 2.23 11.77 4.18 23.5 8.45 35.3 12.56 2.04 0.71 2.93 1.59 3.13 3.85 0.43 5.03 1.12 10.04 1.31 15.09 0.03 0.76 0 1.52 0 2.64-2.46 0-4.77 0-7.08 0z"/>
			</g>
		</g>
		<g id="path12">
			<g id="&lt;Group&gt;">
				<path id="&lt;Path&gt;" class="s4" d="m55.21 264.41c19.21 0.47 38.43 0.17 57.64 0.25 3.71 0.02 3.63 0.01 3.97 3.66 1.49 15.88 5.38 31.13 12.03 45.66 5.56 12.15 12.66 23.3 21.45 33.37 0.41 0.46 0.74 0.98 1.2 1.61-14.34 14.68-29.23 28.81-43.22 43.82-1.58 1.48-3.16 2.96-4.9 4.6-3.45-3.45-6.17-7.48-9.57-10.83-3.62-3.57-3.33-6.66-1.13-10.93 5.14-9.96 9.66-20.24 14.5-30.35 0.48-1.01 0.34-1.75-0.15-2.59-4.95-8.36-9.03-17.16-12.4-26.25-1.91-5.15-3.97-10.33-4.84-15.82-0.16-1.08-0.66-1.6-1.66-1.95-11.69-4.17-23.33-8.49-35.1-12.45-2.51-0.85-3.28-1.83-3.46-4.38-0.28-4.01-0.11-8.1-0.25-12.47-0.14-1.64 0-3.19 0.05-4.95 2.07 0 3.67 0 5.84 0z"/>
			</g>
		</g>
		<g id="path11">
			<g id="&lt;Group&gt;">
				<path id="&lt;Path&gt;" class="s4" d="m264.9 457.75c0.46-19.53 0.18-39.07 0.25-58.6 0.01-0.93 0-1.86 0-3.19 31.94-2.26 60.02-13.88 84.23-35.03 14.76 14.39 28.87 29.3 43.9 43.28 1.58 1.68 3.17 3.37 4.88 5.18-4.78 4.51-9.76 8.59-14.86 12.53-0.85 0.67-1.57 0.27-2.36-0.1-10.87-5.17-21.79-10.24-32.58-15.55-2.86-1.42-4.94-1.34-7.87 0.48-11.85 7.37-24.74 13.06-38.45 15.7-1.77 0.34-2.54 0.86-3.04 2.28-4.15 11.7-8.41 23.36-12.49 35.08-0.72 2.05-1.5 3.12-3.89 3.34-5.78 0.53-11.54 1.22-17.72 1.22 0-2.31 0-4.47 0-6.62z"/>
			</g>
		</g>
		<g id="path10">
			<g id="&lt;Group&gt;">
				<path id="&lt;Path&gt;" class="s4" d="m405.05 392.79c0.05-0.84-0.65-1.19-1.11-1.67-13.34-14.05-27.24-27.55-40.89-41.29-0.49-0.49-1.08-0.9-1.76-1.46 21.15-24.35 32.92-52.38 35.14-84.43 1.38 0 2.54 0 3.7 0q23.24 0.02 46.48-0.01c3.73-0.01 7.46-0.15 11.19-0.23 2.3 0.1 4.08 0.19 6.49 0.3 0.08 4.65 0.01 8.74-0.02 13.16 0.21 5.69-2.51 8.05-7.72 9.65-10.37 3.19-20.49 7.17-30.75 10.73-2.09 0.73-2.85 1.9-3.2 4.75-1.75 14.11-7.48 27.39-16.16 38.65-1.21 1.57-1.43 2.34-0.84 3.58 5.64 11.84 11.22 23.7 16.9 35.52 0.6 1.25 0.5 2.03-0.32 3.07-3.42 4.34-6.97 8.57-10.6 12.74-1.12 1.28-1.95 1.53-3.16 0.13-1.01-1.16-2.24-2.13-3.37-3.19z"/>
			</g>
		</g>
		<g id="path09">
			<g id="&lt;Group&gt;">
				<path id="&lt;Path&gt;" class="s4" d="m120.02 404.13c2.64-2.78 5.67-5.19 8.4-7.87 11.27-11.06 22.38-22.28 33.53-33.47 0.59-0.59 1.14-1.16 1.79-1.89 24.54 21.26 52.31 32.85 84.34 35.09 0 1.21 0 2.22 0 3.22 0 15.64-0.02 31.27 0.01 46.91 0.01 3.88 0.2 7.76 0.3 11.64 0 2.11 0.01 4.38 0.01 6.61-3.85 0.05-8.27-0.41-12.12-0.65-2.4-0.15-4.59-0.41-7.18-0.79-1.1-0.07-1.56-0.47-1.92-1.5-3.07-8.75-6.21-17.47-9.32-26.21q-1.98-5.63-3.93-11.27c-0.26-0.73-0.78-1.04-1.53-1.24-15.02-3.91-29.25-9.74-42.61-17.66-0.93-0.55-1.57-0.26-2.35 0.11-11.63 5.53-23.28 11.02-34.9 16.58-1.25 0.6-2.06 0.47-3.11-0.4-4.19-3.46-8.44-6.85-12.71-10.23-1.37-1.09-1.63-1.89-0.19-3.31 1.15-1.12 2.29-2.49 3.49-3.67z"/>
			</g>
		</g>
		<g id="path08">
			<g id="&lt;Group&gt;">
				<path id="&lt;Path&gt;" class="s4" d="m392.87 108.77c-14.13 13.22-27.54 27.16-41.25 40.81-1.56 1.55-2.52 2.22-4.43 0.3-2.43-2.44-5.34-4.4-8.04-6.57-0.58-2.66-1.22-5.32-1.75-7.99-0.57-2.89-2.46-4.65-5.05-5.46-3.98-1.26-7.76-0.84-10.87 2.33-17.52-9.26-36.24-14.32-56.12-15.67 0-1.05 0-1.9 0-2.75 0-15.78 0.02-31.57-0.01-47.36-0.01-3.72-0.19-7.44-0.3-11.16 0-2.39-0.04-4.76 0-7.22 1.68-0.09 8.5 0.51 12.5 0.78 2.1 0.19 4.15 0.46 6.21 0.73 1.38 0.17 2.08 0.56 2.54 1.86 4.2 11.92 8.48 23.8 12.66 35.73 0.57 1.62 1.36 2.48 3.1 2.92 7.97 2.02 15.66 4.86 23.25 8.01 6.28 2.62 12.22 5.86 18.12 9.21 0.77 0.44 1.71 0.47 2.51 0.08q13.83-6.7 27.69-13.35c2.33-1.13 4.71-2.17 7.04-3.3 0.97-0.46 1.82-0.69 2.79 0.04 5.07 3.86 9.94 7.95 14.75 12.41-1.85 1.94-3.59 3.78-5.34 5.62z"/>
			</g>
		</g>
		<path id="compPath07" fill-rule="evenodd" class="s5" d="m217.33 148.53c8.23 21.14 16.53 42.26 24.82 63.38q13.86 35.34 27.75 70.69c2.86 7.28 5.69 14.59 8.66 21.83 0.98 2.38 1.44 4.61 0.9 7.21-0.84 4-1.64 8.9-2.26 13.03-0.5-1.09-1.07-2.43-1.45-3.28-7.98-17.58-16.65-34.79-26.69-51.3-3.96-6.51-8.36-12.73-13.06-18.74-2.24-2.88-2.9-6.49-4.19-9.79-9.95-25.39-19.78-50.83-29.64-76.25q-5.4-13.91-10.8-27.82-3.64-9.3-7.29-18.59c-0.35-0.89-0.1-1.59 0.76-1.65 0.38 0 1.97-0.2 2.96-0.36 4.91-0.79 9.1-3.15 13.18-5.75 0.42-0.27 1.53-0.39 1.87 0.42 1.5 3.46 2.32 5.7 3.75 9.18m9.61 40.07c-0.03-0.27-0.02-0.51-0.1-0.72-1.63-4.27-3.16-8.58-4.93-12.78-0.82-1.94-3.05-2.6-4.95-1.9-1.92 0.72-3.2 2.82-2.5 4.91q2.16 6.38 4.8 12.58c0.83 1.96 2.73 2.5 4.73 1.91 1.92-0.56 2.78-2.09 2.95-4z"/>
		<path id="path05 1 " class="s0" d="m126.68 220.53c-1.36-2.95-4.11-8.84-4.11-8.84-1.12-2.57-1.96-4.7-1.56-7.34 0.6-2.33 1.06-4.71 1.83-6.98 4.37-12.85 14.23-19.16 27.76-18.33 5.78 0.35 10.41 2.15 14.67 6.3 8.19 7.96 16.9 15.39 25.4 23.04 1.22 1.09 2.34 2.25 2.31 4.18-27.27-0.3-43.17 13.34-48.64 39.71-1.94-0.49-2.96-1.73-3.73-3.34"/>
		<g id="path04 6 ">
			<g id="&lt;Group&gt;">
				<path id="&lt;Path&gt;" class="s4" d="m206.51 108.39q-0.24-0.55-0.49-1.1c-1.54-3.32-2.89-5.35-4.35-8.02-0.92-1.69-2.06-3.26-3.25-5.1 4.52-1.83 9.05-3.05 13.56-4.28 1.4-0.37 2.05-0.98 2.51-2.28 4.15-11.76 8.4-23.48 12.53-35.24 0.66-1.87 1.4-2.84 3.62-3.03 5.26-0.45 10.49-1.15 15.77-1.27 0.6-0.01 1.23-0.2 2.14 0.42 0 2.08 0 4.39 0 6.7-0.46 19.42-0.17 38.84-0.25 58.27-0.01 0.92 0 1.84 0 2.97-3.19 0.37-6.24 0.71-9.28 1.06q-12.5 1.48-24.46 5.37c-0.65 0.21-1.36 0.26-2.03 0.38"/>
			</g>
		</g>
		<g id="path03">
			<g id="&lt;Group&gt;">
				<path id="&lt;Path&gt;" class="s6" d="m121.08 219.61c-2.34 9.1-3.9 18.33-4.49 27.62-0.97 0.58-1.84 0.35-2.66 0.35-15.85 0.02-31.71-0.01-47.57 0.03-3.72 0-7.44 0.19-11.16 0.3-2.2 0-4.27-0.04-6.55-0.13 0-4.23 0.35-8.57 0.64-12.65 0.12-1.62 0.38-3.39 0.55-4.85 0.32-2.74 1.38-3.6 3.68-4.39 11.35-3.92 22.65-8.01 33.97-12.01 1.34-0.48 2.12-1.14 2.47-2.67 0.74-3.24 1.82-6.39 2.83-9.81 7.39 3.16 14.87 5.28 22.77 5.74 1.19 4.45 3.6 8.35 5.52 12.47z"/>
			</g>
		</g>
		<path id="path02" class="s0" d="m333.98 141.2c0 0 1.35 9.97 1.99 14.95 0.86 6.6 2.03 13.16 3.07 19.72-0.55 0.83-1.46 0.92-2.21 1.27-4.34 2.04-4.36 2.04-6.91-1.81-1.28-1.92-3.04-2.81-5.35-2.64q-1.88 0.13-3.63 0.81c-2.59 1.02-5 1.21-7.43-0.69-1.65-1.3-3.78-1.76-6.17-1.87 5.63-11.26 11.18-22.34 16.73-33.43 1.54-3.05 2.66-3.74 5.53-3.43 1.22 0.13 2.24 0.58 2.84 1.71 0.55 1.09 1.24 3.26 1.54 5.41z"/>
		<g id="path01">
			<g id="&lt;Group&gt;">
				<path id="&lt;Path&gt;" class="s4" d="m164.49 150.89c-0.78-7.2-2.8-14.05-5.85-20.6-0.82-1.75-1.69-3.48-2.66-5.14-2.13-3.64-4.4-4.29-8.06-2.42-1.2-1.11-1.4-2.28-1.28-4.05 0.4-5.56-2.15-10.03-6.38-13.5-4.95-4.06-10.89-5.69-17.06-6.67-0.38-0.06-0.77-0.1-1.14-0.19-0.22-0.05-0.42-0.19-0.86-0.41 2.94-2.75 6.06-5.1 9.16-7.48 0.67-0.52 1.28-0.19 1.94 0.13 10.78 5.16 21.61 10.19 32.3 15.51 3.05 1.52 5.56 1.62 8.2-0.49 0.7-0.55 1.58-0.88 2.97-1.63 0.83 11.59 6.03 21.54 9.7 32-5.9 3.47-11.46 7.42-16.78 11.72-1.36 1.11-2.46 2.59-4.2 3.22z"/>
			</g>
		</g>
		<path id="path00b" class="s0" d="m177.64 80.32c0 0-0.55-1.16-1-3.07-0.34-1.4-0.11-2.04 0.06-2.38 0.17-0.35 0.54-0.75 1.31-0.39 0.77 0.35 1.53 1.3 1.74 1.57 0.21 0.27 0.81 1.24 1.06 1.74 0.24 0.47 0.37 0.82 0.46 1.11z"/>
	</g>
</svg>