<svg xmlns="http://www.w3.org/2000/svg" style="display: none;"><symbol id="pen" viewBox="0 0 512 512"><title>pen</title><path xmlns="http://www.w3.org/2000/svg" style="" d="M503.381,8.62L503.381,8.62c-11.493-11.493-30.126-11.493-41.619,0l-52.198,52.198l41.619,41.619 l52.198-52.198C514.873,38.745,514.873,20.112,503.381,8.62z" fill="#219c56" data-original="#ffb123" class=""/><path xmlns="http://www.w3.org/2000/svg" style="" d="M451.183,102.436l52.198-52.198c4.669-4.669,7.441-10.516,8.316-16.585 c0.067-0.467,0.123-0.935,0.168-1.404c0.09-0.938,0.135-1.879,0.135-2.821c0-1.883-0.18-3.766-0.539-5.621 c-0.18-0.927-0.404-1.848-0.673-2.758s-0.584-1.81-0.943-2.695c-0.898-2.214-2.076-4.341-3.535-6.326 c-0.875-1.191-1.852-2.331-2.929-3.409l-73.007,73.007L451.183,102.436z" fill="#1a823d" data-original="#ff901d" class=""/><path xmlns="http://www.w3.org/2000/svg" style="" d="M318.183,336.277c-2.929-2.929-2.929-7.678,0-10.607l136.253-136.253 c1.175-1.175,1.175-3.088,0-4.263l-24.66-24.66c-2.929-2.929-2.929-7.678,0-10.607s7.677-2.929,10.607,0l24.66,24.66 c7.024,7.024,7.024,18.453,0,25.477L328.789,336.277C325.86,339.206,321.112,339.207,318.183,336.277z" fill="#234c60" data-original="#234c60" class=""/><path xmlns="http://www.w3.org/2000/svg" style="" d="M51.421,380.895L0.394,506.516c-1.57,3.251,1.839,6.659,5.089,5.089l125.621-51.027l14.263-14.263 l-79.684-79.684L51.421,380.895z" fill="#219c56" data-original="#ffb123" class=""/><path xmlns="http://www.w3.org/2000/svg" style="" d="M112.841,413.789l-14.263,14.263L1.287,511.003c1.065,0.96,2.646,1.351,4.197,0.602l125.621-51.027 l14.263-14.263L112.841,413.789z" fill="#1a823d" data-original="#ff901d" class=""/><path xmlns="http://www.w3.org/2000/svg" style="" d="M411.909,33.554l66.537,66.537c3.63,3.63,3.63,9.516,0,13.147L131.388,460.296l-79.684-79.684 L398.762,33.554C402.392,29.924,408.278,29.924,411.909,33.554z" fill="#1ac46b" data-original="#ff4c4c" class=""/><path xmlns="http://www.w3.org/2000/svg" style="" d="M478.446,100.091l-32.998-32.998c3.63,3.63,3.63,9.516,0,13.147L98.39,427.297l32.998,32.998 l347.058-347.058C482.076,109.608,482.076,103.722,478.446,100.091z" fill="#13a257" data-original="#f33939" class=""/><rect xmlns="http://www.w3.org/2000/svg" x="339.599" y="89.042" transform="matrix(0.7071 0.7071 -0.7071 0.7071 198.0372 -245.9808)" style="" width="112.689" height="54.039" fill="#219c56" data-original="#ffb123" class=""/><rect xmlns="http://www.w3.org/2000/svg" x="396.086" y="112.442" transform="matrix(0.7071 0.7071 -0.7071 0.7071 221.4371 -255.6723)" style="" width="46.514" height="54.039" fill="#1a823d" data-original="#ff901d" class=""/></symbol><symbol id="support" viewBox="0 0 512 512"><title>support</title><g xmlns="http://www.w3.org/2000/svg" style="opacity:0.4;"> <path style="" d="M448,193.108h-32v80c0,44.176-35.824,80-80,80H192v32c0,35.344,28.656,64,64,64h96l69.76,58.08 c6.784,5.648,16.88,4.736,22.528-2.048c2.4-2.88,3.712-6.512,3.712-10.272v-45.76c35.344,0,64-28.656,64-64v-128 C512,221.764,483.344,193.108,448,193.108z" fill="#3eb778" data-original="#3eb798" class=""/> </g><path xmlns="http://www.w3.org/2000/svg" style="" d="M320,1.108H64c-35.344,0-64,28.656-64,64v192c0,35.344,28.656,64,64,64l0,0v61.28 c0,8.832,7.168,16,16,16c3.808,0,7.504-1.36,10.4-3.84l85.6-73.44h144c35.344,0,64-28.656,64-64v-192 C384,29.764,355.344,1.108,320,1.108z M118.56,183.668c-1.408,1.552-3.024,2.896-4.8,4c-1.728,1.168-3.536,2.192-5.44,3.04 c-1.984,0.736-4.016,1.328-6.08,1.76c-2.048,0.448-4.144,0.656-6.24,0.64c-17.68,0-32-14.32-32-32 c-0.336-17.664,13.712-32.272,31.376-32.608c2.304-0.048,4.608,0.16,6.864,0.608c2.064,0.432,4.096,1.024,6.08,1.76 c1.936,0.8,3.76,1.808,5.44,3.04c1.744,1.104,3.344,2.384,4.8,3.84c6.208,6.176,9.616,14.608,9.44,23.36 C127.968,169.588,124.576,177.7,118.56,183.668z M214.56,183.668c-5.968,6.016-14.08,9.408-22.56,9.44c-2.08,0.24-4.16,0.24-6.24,0 c-2.064-0.432-4.096-1.024-6.08-1.76c-1.904-0.848-3.712-1.872-5.44-3.04c-1.792-1.152-3.456-2.48-4.96-4 c-6.112-6.16-9.456-14.528-9.28-23.2c-0.24-2.08-0.24-4.16,0-6.24c0.432-2.064,1.024-4.096,1.76-6.08 c0.8-1.936,1.808-3.76,3.04-5.44c1.136-1.76,2.432-3.424,3.84-4.96c1.536-1.408,3.2-2.704,4.96-3.84 c1.68-1.232,3.504-2.24,5.44-3.04c2.176-0.992,4.416-1.792,6.72-2.4c17.328-3.456,34.176,7.808,37.632,25.136 c0.448,2.256,0.656,4.56,0.608,6.864c0,8.448-3.328,16.56-9.28,22.56H214.56z M310.56,183.668c-1.408,1.552-3.024,2.896-4.8,4 c-1.728,1.168-3.536,2.192-5.44,3.04c-1.984,0.736-4.016,1.328-6.08,1.76c-2.048,0.448-4.144,0.656-6.24,0.64 c-17.68,0-32-14.32-32-32c-0.336-17.664,13.712-32.272,31.376-32.608c2.304-0.048,4.608,0.16,6.864,0.608 c2.064,0.432,4.096,1.024,6.08,1.76c1.936,0.8,3.76,1.808,5.44,3.04c1.744,1.104,3.344,2.384,4.8,3.84 c6.208,6.176,9.616,14.608,9.44,23.36C319.968,169.588,316.576,177.7,310.56,183.668z" fill="#3eb778" data-original="#3eb798" class=""/></symbol><symbol id="contact" viewBox="0 0 64 64"><title>contact</title><path d="m1 21 14.46 11.46-.46 25.54 14.46-13.54 10.54 10.54 23-49z" fill="#3cd67e" data-original="#48acff" class=""/><path d="m63 6-39.46 32.54-8.54 19.46.46-25.54z" fill="#24ac6b" data-original="#337fef" class=""/><path d="m29.46 44.46-14.46 13.54 8.54-19.46z" fill="#2b602c" data-original="#185bd1" class=""/></symbol><symbol id="download" viewBox="0 0 497 497"><title>download</title><path d="m390.858 347.76c-2.322-5.605-7.792-9.26-13.858-9.26h-30l-98.498 158.5c3.838 0 7.676-1.465 10.605-4.394l128.5-128.5c4.289-4.29 5.573-10.741 3.251-16.346z" fill="#ebebeb" data-original="#61ce5a" class=""/><path d="m346.868 338.5h-8.368v-52.5c0-4.142-3.358-7.5-7.5-7.5h-165c-4.142 0-7.5 3.358-7.5 7.5v52.5h-38.081c-5.51 0-10.759 2.801-13.468 7.599-3.358 5.948-2.278 13.286 2.443 18.007l128.5 128.5c2.929 2.929 6.768 4.394 10.606 4.394 3.038 0 6.073-1.465 8.389-4.394l101.636-128.5c2.184-2.761 3.52-6.593 3.474-10.82-.09-8.22-6.91-14.786-15.131-14.786z" fill="#ffffff" data-original="#94e368" class=""/><path d="m411 76.5c-4.721 0-9.348.396-13.862 1.127-12.043-44.714-52.868-77.627-101.387-77.627l85.249 248.5h30c47.496 0 86-38.504 86-86 0-47.497-38.504-86-86-86z" fill="#f5f5f5" data-original="#8ae7ff" class=""/><path d="m467 162.5c0-47.497-38.504-86-86-86-4.721 0-9.348.396-13.862 1.127-8.479-44.714-37.225-77.627-71.387-77.627-48.52 0-89.346 32.912-101.389 77.627-4.514-.732-9.141-1.127-13.862-1.127-47.496 0-86 38.503-86 86 0 47.496 38.504 86 86 86h200.5c47.496 0 86-38.504 86-86z" fill="#ffffff" data-original="#c4f3ff" class=""/><path d="m248.5 113.5c-3.706 0-7.337.311-10.88.885-9.501-35.076-41.538-60.885-79.62-60.885 0 0 60.5 195 60.5 195h30c37.279 0 67.5-30.221 67.5-67.5s-30.221-67.5-67.5-67.5z" fill="#ebebeb" data-original="#4fdbff" class=""/><path d="m286 181c0-37.279-30.221-67.5-67.5-67.5-3.706 0-7.337.311-10.88.885-5.921-35.075-25.887-60.885-49.62-60.885-38.082 0-70.119 25.81-79.619 60.885-3.543-.574-7.175-.885-10.88-.885-37.28 0-67.501 30.221-67.501 67.5s30.221 67.5 67.5 67.5h151c37.279 0 67.5-30.221 67.5-67.5z" fill="#f5f5f5" data-original="#8ae7ff" class=""/></symbol><symbol id="buy" viewBox="0 0 64 64"><title>buy</title><g xmlns="http://www.w3.org/2000/svg" id="Fill_1" data-name="Fill 1"> <path d="m46.1577 61h-28.3154a6.85 6.85 0 0 1 -6.8423-6.8423c0-.1221.0034-.2446.01-.3667l1.9917-35.8467a1 1 0 0 1 .9983-.9443h36a1 1 0 0 1 .9985.9443l1.9915 35.8423c.0064.1265.01.249.01.3711a6.85 6.85 0 0 1 -6.8423 6.8423z" fill="#46e298" data-original="#46afe2" class=""/> </g><g xmlns="http://www.w3.org/2000/svg" id="Effect_Line" data-name="Effect Line"> <circle cx="16" cy="20" fill="#ebebeb" r="1" data-original="#90cfee" class=""/> <path d="m15.1709 34c-.0186 0-.0376-.0005-.0566-.0015a1 1 0 0 1 -.9429-1.0542l.5-9a1 1 0 0 1 1.9971.1114l-.5 9a1 1 0 0 1 -.9976.9443z" fill="#ebebeb" data-original="#90cfee" class=""/> <path d="m46.1577 59h-2.1577a1 1 0 0 1 0-2h2.1577a2.8453 2.8453 0 0 0 2.8423-2.8423l-.0039-.1553-.4419-7.9467a1 1 0 0 1 1.9971-.1114l.4419 7.9532c.0039.08.0068.17.0068.26a4.848 4.848 0 0 1 -4.8423 4.8425z" fill="#84f9b1" data-original="#3583aa" class=""/> </g><g xmlns="http://www.w3.org/2000/svg" id="Line" fill="#42362e"> <path d="m39 25a1 1 0 0 1 -1-1v-13a6 6 0 0 0 -12 0v13a1 1 0 0 1 -2 0v-13a8 8 0 0 1 16 0v13a1 1 0 0 1 -1 1z" fill="#ffffff" data-original="#42362e" class=""/> <path d="m30 45a.9967.9967 0 0 1 -.707-.293l-5-5a1 1 0 0 1 1.414-1.414l4.293 4.2929 8.293-8.2929a1 1 0 0 1 1.414 1.414l-9 9a.9967.9967 0 0 1 -.707.293z" fill="#ffffff" data-original="#42362e" class=""/> </g></symbol><symbol id="hamburger" viewBox="0 -2 512 512"><title>hamburger</title><path d="m502.175781 377.175781h-56.671875c20.558594 0 37.378906-16.820312 37.378906-37.378906s-16.820312-37.378906-37.378906-37.378906h.707032c20.167968 0 36.671874-16.5 36.671874-36.667969 0-6.921875-1.945312-13.410156-5.3125-18.945312 2.703126-.722657 5.628907-1.355469 8.878907-1.851563 7.75-1.183594 11.484375-7.96875 7.308593-13.082031l-34.867187-42.042969h16.824219c25.441406 0 43.070312-21.886719 33.765625-42.132813-39.734375-86.480468-138.246094-147.695312-253.480469-147.695312s-213.746094 61.214844-253.480469 147.695312c-9.304687 20.246094 8.324219 42.132813 33.765625 42.132813h13.230469l-31.519531 42.242187c-3.851563 5.179688.144531 11.675782 7.816406 12.800782 3.191406.46875 6.066406 1.066406 8.726562 1.753906-3.433593 5.578125-5.421874 12.128906-5.421874 19.125 0 20.167969 16.503906 36.667969 36.671874 36.667969h.707032c-20.558594 0-37.378906 16.820312-37.378906 37.378906s16.820312 37.378906 37.378906 37.378906h-56.671875c-5.425781 0-9.824219 4.398438-9.824219 9.824219v1.605469c0 66.078125 53.566406 119.644531 119.644531 119.644531h272.710938c66.078125 0 119.644531-53.566406 119.644531-119.640625v-1.609375c0-5.425781-4.398438-9.824219-9.824219-9.824219zm0 0" fill="#ffe7c0"/><path d="m482.878906 265.75c0 10.082031-4.125 19.253906-10.769531 25.902344-6.644531 6.644531-15.808594 10.765625-25.902344 10.765625h-380.414062c-20.175781 0-36.671875-16.496094-36.671875-36.667969 0-5.5 1.226562-10.730469 3.425781-15.425781 1.824219-3.917969 4.320313-7.457031 7.34375-10.476563 6.644531-6.644531 15.808594-10.769531 25.902344-10.769531h380.414062c14.675781 0 27.402344 8.726563 33.246094 21.246094 2.199219 4.695312 3.425781 9.925781 3.425781 15.425781zm0 0" fill="#d63030"/><path d="m479.453125 250.324219c-1.824219 3.914062-4.320313 7.445312-7.34375 10.464843-6.644531 6.648438-15.808594 10.769532-25.902344 10.769532h-380.414062c-14.664063 0-27.394531-8.714844-33.246094-21.234375 1.824219-3.917969 4.320313-7.457031 7.34375-10.476563 6.644531-6.644531 15.808594-10.769531 25.902344-10.769531h380.414062c14.675781 0 27.402344 8.726563 33.246094 21.246094zm0 0" fill="#f44545"/><path d="m482.878906 339.800781c0 20.558594-16.820312 37.378907-37.378906 37.378907h-379c-10.28125 0-19.621094-4.210938-26.402344-10.980469-6.769531-6.777344-10.976562-16.121094-10.976562-26.398438 0-4.25.71875-8.34375 2.039062-12.167969 5.082032-14.632812 19.03125-25.214843 35.339844-25.214843h379c10.28125 0 19.621094 4.210937 26.402344 10.980469 3.96875 3.976562 7.0625 8.832031 8.9375 14.234374 1.320312 3.824219 2.039062 7.917969 2.039062 12.167969zm0 0" fill="#7c3f2c"/><path d="m480.839844 327.632812c-5.082032 14.632813-19.03125 25.214844-35.339844 25.214844h-379c-10.28125 0-19.621094-4.207031-26.402344-10.976562-3.96875-3.976563-7.0625-8.832032-8.9375-14.238282 5.082032-14.632812 19.03125-25.214843 35.339844-25.214843h379c10.28125 0 19.621094 4.210937 26.402344 10.980469 3.96875 3.976562 7.0625 8.832031 8.9375 14.234374zm0 0" fill="#954c35"/><path d="m486.453125 244.949219c-25.214844 3.84375-30.777344 15.789062-65.335937 15.789062-41.1875 0-41.1875-16.964843-82.371094-16.964843-41.179688 0-41.179688 16.964843-82.359375 16.964843-41.183594 0-41.183594-16.964843-82.375-16.964843-41.179688 0-41.179688 16.964843-82.347657 16.964843-34.789062 0-40.191406-12.101562-65.855468-15.863281-7.664063-1.121094-11.664063-7.621094-7.8125-12.808594l15.570312-20.871094 21.082032-28.234374h398.539062l28.628906 34.515624 11.9375 14.390626c4.1875 5.113281.445313 11.90625-7.300781 13.082031zm0 0" fill="#1ed688"/><path d="m481.816406 217.476562c-13.175781 4.925782-22.964844 11.234376-48.085937 11.234376-41.191407 0-41.191407-16.964844-82.371094-16.964844s-41.179687 16.964844-82.371094 16.964844c-41.179687 0-41.179687-16.964844-82.363281-16.964844-41.179688 0-41.179688 16.964844-82.359375 16.964844-34.789063 0-40.183594-12.101563-65.84375-15.859376-1.855469-.273437-3.488281-.855468-4.855469-1.65625l21.082032-28.234374h398.539062zm0 0" fill="#35e298"/><path d="m512 387v1.601562c0 26.445313-8.582031 50.878907-23.121094 70.6875-21.757812 29.695313-56.886718 48.960938-96.527344 48.960938h-272.703124c-66.085938 0-119.648438-53.5625-119.648438-119.648438v-1.601562c0-5.425781 4.394531-9.820312 9.820312-9.820312h492.359376c5.425781 0 9.820312 4.394531 9.820312 9.820312zm0 0" fill="#f29500"/><path d="m512 387v1.601562c0 26.445313-8.582031 50.878907-23.121094 70.6875-18.019531 10.875-39.140625 17.132813-61.71875 17.132813h-272.707031c-59.125 0-108.230469-42.878906-117.90625-99.242187h465.632813c5.425781 0 9.820312 4.394531 9.820312 9.820312zm0 0" fill="#ffa90b"/><path d="m94.566406 302.714844 250.914063 58.953125c8.707031 2.046875 17.605469-1.191407 24.691406-8.988281l49.238281-50.261719zm0 0" fill="#ffcd71"/><path d="m508.988281 171.179688c-5.488281 10.71875-17.964843 18.644531-33.273437 18.644531h-439.429688c-25.441406 0-43.066406-21.882813-33.765625-42.128907 30.484375-66.355468 95.589844-117.835937 176.285157-138.207031 24.476562-6.175781 50.375-9.488281 77.195312-9.488281 115.230469 0 213.746094 61.21875 253.480469 147.695312 3.707031 8.0625 3.132812 16.382813-.492188 23.484376zm0 0" fill="#f29500"/><path d="m508.988281 171.179688h-420.035156c-25.433594 0-43.066406-21.890626-33.765625-42.136719 23.519531-51.191407 67.636719-93.527344 123.617188-119.554688 24.476562-6.175781 50.375-9.488281 77.195312-9.488281 115.230469 0 213.746094 61.21875 253.480469 147.695312 3.707031 8.0625 3.132812 16.382813-.492188 23.484376zm0 0" fill="#ffa90b"/><g fill="#ffd993"><path d="m148.863281 53.984375c-3.484375-2.542969-8.371093-1.78125-10.914062 1.703125l-11.664063 15.96875c-2.542968 3.484375-1.78125 8.371094 1.703125 10.914062 1.386719 1.015626 3 1.503907 4.597657 1.503907 2.410156 0 4.785156-1.109375 6.316406-3.203125l11.664062-15.972656c2.542969-3.480469 1.78125-8.367188-1.703125-10.914063zm0 0"/><path d="m198.113281 120.59375c-3.484375-2.546875-8.371093-1.78125-10.914062 1.699219l-11.664063 15.972656c-2.542968 3.480469-1.78125 8.367187 1.703125 10.914063 1.386719 1.015624 3 1.503906 4.597657 1.503906 2.410156 0 4.785156-1.109375 6.316406-3.207032l11.664062-15.96875c2.542969-3.484374 1.78125-8.371093-1.703125-10.914062zm0 0"/><path d="m287.601562 53.984375c-3.484374-2.542969-8.371093-1.78125-10.914062 1.703125l-11.664062 15.96875c-2.542969 3.484375-1.78125 8.371094 1.699218 10.914062 1.390625 1.015626 3.003906 1.503907 4.601563 1.503907 2.410156 0 4.785156-1.109375 6.316406-3.203125l11.664063-15.972656c2.542968-3.480469 1.78125-8.367188-1.703126-10.914063zm0 0"/><path d="m337.628906 136.5625c-3.488281-2.542969-8.371094-1.78125-10.914062 1.703125l-11.664063 15.972656c-2.546875 3.480469-1.78125 8.371094 1.699219 10.914063 1.390625 1.015625 3.003906 1.503906 4.601562 1.503906 2.410157 0 4.785157-1.109375 6.3125-3.207031l11.664063-15.96875c2.546875-3.484375 1.785156-8.371094-1.699219-10.917969zm0 0"/><path d="m402.167969 53.984375c-3.484375-2.542969-8.371094-1.78125-10.914063 1.703125l-11.664062 15.96875c-2.542969 3.484375-1.78125 8.371094 1.703125 10.914062 1.386719 1.015626 3 1.503907 4.597656 1.503907 2.410156 0 4.785156-1.109375 6.316406-3.203125l11.664063-15.972656c2.542968-3.480469 1.78125-8.367188-1.703125-10.914063zm0 0"/><path d="m454.378906 128.578125c-3.484375-2.542969-8.371094-1.78125-10.914062 1.703125l-11.664063 15.96875c-2.542969 3.484375-1.785156 8.371094 1.699219 10.914062 1.390625 1.015626 3.003906 1.503907 4.601562 1.503907 2.410157 0 4.785157-1.109375 6.316407-3.203125l11.660156-15.972656c2.546875-3.484376 1.785156-8.371094-1.699219-10.914063zm0 0"/><path d="m78.5 111.902344c-3.484375-2.542969-8.371094-1.78125-10.917969 1.699218l-11.660156 15.972657c-2.546875 3.484375-1.785156 8.371093 1.699219 10.914062 1.390625 1.015625 3.003906 1.503907 4.601562 1.503907 2.40625 0 4.78125-1.109376 6.3125-3.203126l11.664063-15.972656c2.542969-3.484375 1.785156-8.371094-1.699219-10.914062zm0 0"/></g><path d="m419.410156 302.417969-39.867187 40.691406-9.375 9.574219c-7.082031 7.789062-15.976563 11.027344-24.683594 8.988281l-250.917969-58.960937 112.003906-.105469zm0 0" fill="#ffcd71"/><path d="m419.410156 302.417969-39.867187 40.691406c-.8125-.09375-1.613281-.238281-2.425781-.425781l-170.546876-40.078125zm0 0" fill="#ffd993"/></symbol><symbol id="package" viewBox="0 0 512 512"><title>package</title><polygon xmlns="http://www.w3.org/2000/svg" style="" points="446.149,420.109 446.149,178.826 255.989,112.915 65.829,178.826 65.829,420.109 255.989,480.421 " fill="#1dc761" data-original="#fd982c" class=""/><polygon xmlns="http://www.w3.org/2000/svg" style="" points="446.149,420.109 446.149,178.826 255.989,112.915 255.989,480.421 " fill="#19994c" data-original="#fa502e" class=""/><polygon xmlns="http://www.w3.org/2000/svg" style="" points="446.149,178.826 255.989,112.915 65.829,178.826 255.989,245.736 " fill="#1f8548" data-original="#fff2b4" class=""/><polygon xmlns="http://www.w3.org/2000/svg" style="" points="446.149,178.826 255.989,112.915 255.989,245.736 " fill="#045123" data-original="#ffdf8e" class=""/><g xmlns="http://www.w3.org/2000/svg"> <polygon style="" points="65.829,178.826 0,256.722 193.739,327.127 255.989,245.736 " fill="#0fb14f" data-original="#fabe3d" class=""/> <polygon style="" points="446.149,178.826 512,256.722 318.261,327.127 255.989,245.736 " fill="#0fb14f" data-original="#fabe3d" class=""/> </g><polygon xmlns="http://www.w3.org/2000/svg" style="" points="446.149,178.826 512,256.722 318.261,327.127 255.989,245.736 " fill="#1dc761" data-original="#fd982c" class=""/><polygon xmlns="http://www.w3.org/2000/svg" style="" points="65.829,178.826 0,101.985 193.739,31.579 255.989,112.915 " fill="#17ef6d" data-original="#fdda50" class=""/><polygon xmlns="http://www.w3.org/2000/svg" style="" points="446.149,178.826 512,101.985 318.261,31.579 255.989,112.915 " fill="#0fb14f" data-original="#fabe3d" class=""/></symbol><symbol id="about" viewBox="0 0 464.056 464.056"><title>about</title><path xmlns="http://www.w3.org/2000/svg" d="m386.028 416.796v39.26c0 4.42-3.58 8-8 8h-292c-4.42 0-8-3.58-8-8v-39.26c0-41.19 33.39-74.56 74.59-74.57 14.56-.01 27.38-7.5 34.76-18.86 7.414-11.394 6.65-21.302 6.65-29.31l.15-.37c-35.9-14.86-61.15-50.23-61.15-91.5v-3.13c-14.255 0-25-11.265-25-24.54v-41.56c-.32-14.47.34-65.5 37.2-101.03 42.86-41.31 110.78-37.93 159.98-15.83 1.6.72 1.55 3.01-.07 3.68l-12.83 5.28c-1.92.79-1.51 3.62.55 3.84l6.23.67c29.83 3.19 57.54 19.39 74.72 46.35.46.73.33 1.84-.26 2.47-10.6 11.21-16.52 26.09-16.52 41.56v54.57c0 13.55-10.99 24.54-24.54 24.54h-1.46v3.13c0 41.27-25.25 76.64-61.15 91.5l.15.37c0 7.777-.827 17.82 6.65 29.31 7.38 11.36 20.2 18.85 34.76 18.86 41.2.01 74.59 33.38 74.59 74.57z" fill="#ffdfba" data-original="#ffdfba"/><path xmlns="http://www.w3.org/2000/svg" d="m386.028 416.796v39.26c0 4.418-3.582 8-8 8h-292c-4.418 0-8-3.582-8-8v-39.26c0-41.19 33.395-74.555 74.585-74.57 14.564-.005 27.387-7.504 34.765-18.86 25.754 22.002 63.531 22.015 89.3 0 7.377 11.356 20.201 18.855 34.765 18.86 41.19.015 74.585 33.38 74.585 74.57z" fill="#41c56a" data-original="#fe4f60" class=""/><path xmlns="http://www.w3.org/2000/svg" d="m373.804 75.921c.464.729.334 1.833-.259 2.461-10.597 11.218-16.517 26.093-16.517 41.564v54.57c0 12.388-9.333 24.54-26 24.54v-61.77c0-26.51-21.49-48-48-48h-102c-26.51 0-48 21.49-48 48v61.77c-14.255 0-25-11.265-25-24.54v-41.56c-.32-14.47.34-65.5 37.2-101.03 42.857-41.311 110.784-37.929 159.976-15.827 1.6.719 1.558 3.01-.065 3.678l-12.831 5.282c-1.918.79-1.514 3.617.548 3.838l6.232.669c29.835 3.187 57.538 19.387 74.716 46.355z" fill="#c5414c" data-original="#42434d" class=""/><path xmlns="http://www.w3.org/2000/svg" d="m331.028 202.186c0 54.696-44.348 99-99 99-51.492 0-99-40.031-99-102.13v-61.77c0-26.51 21.49-48 48-48h102c26.51 0 48 21.49 48 48z" fill="#ffebd2" data-original="#ffebd2" class=""/><path xmlns="http://www.w3.org/2000/svg" d="m313.028 447.056h-24c-4.418 0-8-3.582-8-8s3.582-8 8-8h24c4.418 0 8 3.582 8 8s-3.581 8-8 8z" fill="#ffffff" data-original="#ffffff" class=""/><path xmlns="http://www.w3.org/2000/svg" d="m209.612 266.114c16.277 10.183 3.442 35.156-14.376 28.004-36.634-14.704-62.208-50.404-62.208-91.932v-64.9c0-10.084 3.11-19.442 8.422-27.168 6.514-9.473 21.578-5.288 21.578 7.168v64.9c0 36.51 19.192 66.79 46.584 83.928z" fill="#fff3e4" data-original="#fff3e4" class=""/><path xmlns="http://www.w3.org/2000/svg" d="m271.158 310.476c-24.637 10.313-51.712 11.113-78.26 0 1.356-5.626 1.13-9.27 1.13-16.42l.15-.37c24.082 9.996 51.571 10.016 75.7 0l.15.37c0 7.153-.226 10.796 1.13 16.42z" fill="#ffd6a6" data-original="#ffd6a6"/><path xmlns="http://www.w3.org/2000/svg" d="m192.91 366.383c-3.698 1.163-7.664 1.804-11.916 1.841-41.296.364-74.966 33.017-74.966 74.315v7.517c0 7.732-6.268 14-14 14h-6c-4.418 0-8-3.582-8-8v-39.26c0-41.191 33.395-74.555 74.585-74.57 14.564-.005 27.387-7.504 34.765-18.86 2.974 2.54 6.158 4.823 9.512 6.822 14.753 8.791 12.402 31.044-3.98 36.195z" fill="#3aad5e" data-original="#ff6d7a" class=""/><path xmlns="http://www.w3.org/2000/svg" d="m271.146 366.383c3.698 1.163 7.664 1.804 11.916 1.841 41.296.364 74.966 33.017 74.966 74.315v7.517c0 7.732 6.268 14 14 14h6c4.418 0 8-3.582 8-8v-39.26c0-41.191-33.395-74.555-74.585-74.57-14.564-.005-27.387-7.504-34.765-18.86-2.974 2.54-6.158 4.823-9.512 6.822-14.752 8.791-12.402 31.044 3.98 36.195z" fill="#42d971" data-original="#e84857" class=""/><path xmlns="http://www.w3.org/2000/svg" d="m305.138 19.776c-11.758 4.839-13.434 5.906-17.508 5.274-65.674-10.18-123.294 16.993-142.862 80.786v.01c-7.32 8.42-11.74 19.42-11.74 31.44v37.523c0 16.188-25 17.315-25-.293v-41.56c-.32-14.47.34-65.5 37.2-101.03 42.86-41.31 110.78-37.93 159.98-15.83 1.6.72 1.55 3.01-.07 3.68z" fill="#9f344c" data-original="#4d4e59" class=""/></symbol><symbol id="policy" viewBox="0 0 24 24"><title>policy</title><path xmlns="http://www.w3.org/2000/svg" d="m14.25 0h-11.5c-1.52 0-2.75 1.23-2.75 2.75v15.5c0 1.52 1.23 2.75 2.75 2.75h8.15c-.84-1.33-1.4-2.9-1.4-4.7v-4.01c0-.05 0-.1.01-.15.04-.85.44-1.63 1.07-2.14.28-.25.6-.43.95-.55l2.4-.82 2.85-.97c.07-.03.14-.05.22-.06v-4.85c0-1.52-1.23-2.75-2.75-2.75z" fill="#36c375" data-original="#eceff1" class=""/><g xmlns="http://www.w3.org/2000/svg" fill="#90a4ae"> <path d="m13.93 8.63-2.4.82c-.35.12-.67.3-.95.55h-6.58c-.55 0-1-.45-1-1s.45-1 1-1h9c.42 0 .78.26.93.63z" fill="#dfdfdf" data-original="#90a4ae" class=""/> <path d="m9.51 12.14c-.01.05-.01.1-.01.15v1.57c-.15.09-.32.14-.5.14h-5c-.55 0-1-.45-1-1s.45-1 1-1h5c.19 0 .36.05.51.14z" fill="#dfdfdf" data-original="#90a4ae" class=""/> <path d="m8 6h-4c-.552 0-1-.448-1-1s.448-1 1-1h4c.552 0 1 .448 1 1s-.448 1-1 1z" fill="#dfdfdf" data-original="#90a4ae" class=""/> </g><path xmlns="http://www.w3.org/2000/svg" d="m17.75 24c-.133 0-.267-.026-.392-.08-.239-.102-5.858-2.549-5.858-7.617v-4.018c0-.428.272-.809.678-.947l5.25-1.786c.209-.071.436-.071.645 0l5.25 1.786c.405.139.677.519.677.948v4.018c0 5.067-5.619 7.515-5.858 7.617-.125.053-.259.079-.392.079z" fill="#e7e7e7" data-original="#4caf50" class=""/><path xmlns="http://www.w3.org/2000/svg" d="m17.5 19.5c-.265 0-.519-.104-.707-.293l-2-2c-.391-.391-.391-1.023 0-1.414s1.023-.391 1.414 0l1.185 1.185 2.308-3.078c.331-.441.958-.532 1.399-.2.442.331.532.958.2 1.4l-3 4c-.174.232-.439.377-.729.397-.023.002-.047.003-.07.003z" fill="#36c375" data-original="#ffffff" class=""/></symbol><symbol id="handbook" viewBox="0 0 504.123 504.123"><title>handbook</title><path xmlns="http://www.w3.org/2000/svg" style="" d="M304.297,71.697c-9.976-4.533-11.292-0.189-27.006,7.885L8.322,235.907l206.643,119.241 l289.154-168.086L304.297,71.697z" fill="#54bb6f" data-original="#54bb6f" class=""/><polyline xmlns="http://www.w3.org/2000/svg" style="" points="8.322,235.907 214.965,355.148 504.123,187.062 " fill="#30b888" data-original="#30b888" class=""/><polygon xmlns="http://www.w3.org/2000/svg" style="" points="391.4,151.907 304.372,101.735 238.332,139.828 323.194,188.752 379.924,221.453 445.932,183.344 " fill="#d5d5d5" data-original="#febc11" class=""/><polyline xmlns="http://www.w3.org/2000/svg" style="" points="238.332,139.828 323.194,188.752 379.924,221.453 445.932,183.344 " fill="#e9e9e9" data-original="#f99d1c" class=""/><path xmlns="http://www.w3.org/2000/svg" style="" d="M377.797,225.143l-141.592-81.625v-7.381l66.04-38.093h4.254l141.56,81.613v7.381l-66.009,38.109 h-4.254V225.143z M246.859,139.828l133.061,76.709l57.49-33.189L304.372,106.65L246.859,139.828z" fill="#41dfa5" data-original="#148c8f" class=""/><path xmlns="http://www.w3.org/2000/svg" style="" d="M223.618,348.759L31.055,237.553C13.978,227.703,0,235.753,0,255.481v13.792 c0,19.72,13.978,43.922,31.055,53.788L223.618,434.26V348.759z" fill="#2b7f61" data-original="#076c84" class=""/><path xmlns="http://www.w3.org/2000/svg" style="" d="M223.618,357.838L32.303,247.832c-13.186-7.597-23.977-1.382-23.977,13.852v10.646 c0,15.226,10.791,33.914,23.977,41.531l191.315,110.001V357.838z" fill="#e2e2b6" data-original="#e2e2b6" class=""/><path xmlns="http://www.w3.org/2000/svg" style="" d="M223.618,423.858v-66.02L32.303,247.832c-13.186-7.597-23.977-1.382-23.977,13.852v10.646" fill="#cecc99" data-original="#cecc99" class=""/><polygon xmlns="http://www.w3.org/2000/svg" style="" points="223.618,348.759 223.618,434.26 503.879,272.105 503.879,186.92 " fill="#37cf98" data-original="#10a5a5" class=""/><polygon xmlns="http://www.w3.org/2000/svg" style="" points="223.618,357.991 223.618,424.575 503.879,262.424 503.879,196.152 " fill="#f9f7e6" data-original="#f9f7e6" class=""/><polyline xmlns="http://www.w3.org/2000/svg" style="" points="503.879,196.152 223.618,357.991 223.618,424.575 " fill="#f2f1d4" data-original="#f2f1d4" class=""/><path xmlns="http://www.w3.org/2000/svg" style="" d="M267.807,361.552c-1.473,0-2.903-0.76-3.694-2.123c-1.178-2.04-0.484-4.647,1.556-5.825 l73.633-42.591c2.032-1.185,4.639-0.48,5.821,1.556c1.178,2.04,0.484,4.643-1.556,5.821l-73.633,42.591 C269.265,361.366,268.532,361.552,267.807,361.552z" fill="#d3c3a1" data-original="#d3c3a1" class=""/><polygon xmlns="http://www.w3.org/2000/svg" style="" points="282.782,348.905 282.561,416.922 308.07,385.379 326.821,391.366 326.821,323.222 " fill="#e9e9e9" data-original="#f99d1c" class=""/><polyline xmlns="http://www.w3.org/2000/svg" style="" points="326.821,323.222 282.782,348.905 282.561,416.922 308.07,385.379 " fill="#3fe9ab" data-original="#f47920" class=""/></symbol></svg>